<?xml version="1.0" encoding="UTF-8" standalone="no"?>
<!-- Created with Inkscape (http://www.inkscape.org/) -->

<svg
   width="1023.9999"
   height="1023.9999"
   viewBox="0 0 270.93333 270.93333"
   version="1.1"
   id="svg1"
   xmlns="http://www.w3.org/2000/svg"
   xmlns:svg="http://www.w3.org/2000/svg">
  <defs
     id="defs1" />
  <g
     id="layer1">
    <path
       style="font-size:53.8951px;font-family:'LIBRARY 3 AM';-inkscape-font-specification:'LIBRARY 3 AM';letter-spacing:0.11228px;fill:#ffffff;stroke-width:0.109896"
       d="m 21.028368,159.18586 h 14.720365 v -2.10997 H 18.918281 v 7.0838 h 14.720361 v 18.66422 c 0,5.45105 -2.285922,10.29925 -8.390103,10.29925 -3.416332,0 -6.003694,-0.67828 -8.31474,-2.23569 l 1.431851,-2.63765 c 2.210561,1.33141 4.320641,2.00966 6.229776,2.00966 2.662715,0 5.878078,-1.28113 5.878078,-7.38526 v -15.85079 h -2.11007 v 15.85079 c 0,3.64232 -1.155523,5.27518 -3.768008,5.27518 -2.411534,0 -4.973781,-1.43187 -6.983382,-2.96417 l -3.391211,6.27998 c 2.637606,2.28598 5.878096,3.76803 11.027706,3.76803 6.983381,0 10.500194,-5.35059 10.500194,-12.40933 V 162.04966 H 21.028368 Z m 43.73822,-2.13511 v 2.18543 c 7.008494,2.0849 10.198744,9.3949 10.198744,16.62946 0,8.59112 -4.471373,17.25752 -14.418921,17.25752 -9.947541,0 -14.418915,-8.6664 -14.418915,-17.25752 0,-8.26447 4.144815,-16.57927 13.363878,-17.20725 v 5.02405 c 0.326564,-0.0519 0.678242,-0.0736 1.055037,-0.0736 6.681939,0 9.143703,6.98346 9.143703,12.25863 0,5.27521 -2.436645,12.28376 -9.143703,12.28376 -6.707057,0 -9.143696,-7.00855 -9.143696,-12.28376 0,-3.9439 1.381596,-8.89253 4.923529,-11.1031 v -2.38635 c -4.797927,2.16025 -7.033619,7.98809 -7.033619,13.48945 0,6.93316 3.516812,14.39382 11.253786,14.39382 7.736986,0 11.253792,-7.46066 11.253792,-14.39382 0,-6.58145 -3.215364,-13.66533 -10.198745,-14.31844 v -4.97376 c -0.35168,-0.0261 -0.703369,-0.0516 -1.055047,-0.0516 -10.550419,0 -16.529008,8.79201 -16.529008,19.34239 0,10.55051 5.978589,19.36762 16.529008,19.36762 10.550432,0 16.529002,-8.81711 16.529002,-19.36762 0,-9.04327 -4.396007,-16.78018 -12.308825,-18.81489 z m 41.803992,0.0261 v 23.03502 c 0,3.34103 -0.87916,5.62699 -2.68781,6.90806 v 2.41151 c 2.51206,-1.13038 4.798,-3.71777 4.798,-9.31957 v -20.92513 h 3.16503 v 20.92503 c 0,4.59699 -1.48206,12.43447 -11.12817,12.98713 v -4.99893 c -0.35168,0.0261 -0.67824,0.0516 -1.055039,0.0516 -4.697457,0 -6.933133,-2.71289 -6.933133,-8.03839 v -23.03585 h -7.385304 v 23.03511 c 0,7.30991 3.240487,12.96202 10.09827,14.6702 v -2.18552 c -6.606583,-1.95941 -7.988187,-7.93804 -7.988187,-12.4848 V 159.1872 h 3.16513 v 20.925 c 0,7.96307 4.672327,9.89729 7.988187,10.09832 v 4.99888 c 0.35167,0.0261 0.703357,0.0261 1.055037,0.0261 9.771639,0 14.293349,-6.48092 14.293349,-15.12222 v -23.03529 z m 30.52507,0 h -12.987 v 37.62981 h 7.38531 v -16.9561 l 12.43436,16.95608 h 8.99295 l -13.69028,-18.46341 c 3.8433,-0.55277 6.07892,-3.24056 6.07892,-7.23457 0,-4.22024 -3.06462,-6.95834 -7.83749,-6.95834 h -8.08861 v 9.39487 h 2.11015 v -7.28477 h 5.97846 c 3.49169,0 5.7275,1.68298 5.7275,4.84824 0,2.81334 -1.33138,5.30026 -5.97862,5.30026 h -2.05997 l 13.56492,18.28738 h -3.71775 l -13.43927,-18.28767 h -2.18542 v 18.28741 h -3.16508 v -33.40981 h 10.87692 c 6.88296,0 11.37951,3.76801 11.37951,9.82208 0,3.76793 -1.45704,6.70698 -4.62217,8.56589 l 1.23091,1.68303 c 3.5168,-1.9845 5.50121,-5.67715 5.50121,-10.24892 0,-6.68203 -4.82302,-11.93204 -13.48946,-11.93204 z m 44.99424,24.61766 -14.49435,-24.61766 h -2.46164 l 19.06608,32.37972 v -30.26983 h 3.16514 v 33.4097 h -4.84819 l -20.95017,-35.51981 h -2.08482 v 37.62981 h 7.38517 V 176.3184 l -2.11005,-3.59216 v 19.87003 h -3.16523 v -31.32473 l 19.71938,33.43482 h 8.164 v -37.62991 h -7.38532 z m 34.84573,-24.6177 h -7.38522 l -8.46559,23.28625 h 18.89045 l -6.7323,-18.51345 -4.92349,13.53968 h 2.2357 l 2.68779,-7.36007 3.71781,10.22378 H 204.0993 l 6.93312,-19.06618 h 4.42121 l 12.15807,33.40972 h -3.21538 l -3.39113,-9.3698 h -20.97533 l -4.16997,11.4799 h 7.68681 l 2.36125,-6.50615 h -2.23576 l -1.60768,4.39605 h -3.1902 l 2.63764,-7.2597 h 18.01101 l 3.39134,9.3698 h 7.7118 z m 22.18529,30.54596 v -28.43603 h 3.16509 v 25.5723 h 2.11014 v -27.68241 h -7.38532 v 32.65603 h 18.68932 v 2.8637 h -18.68932 v 2.1101 h 20.79945 v -7.08386 z"
       id="text4"
       aria-label="Journal" />
    <path
       style="font-size:79.282px;font-family:'LIBRARY 3 AM';-inkscape-font-specification:'LIBRARY 3 AM';letter-spacing:0.165169px;fill:#ffffff;stroke-width:0.161655"
       d="M 25.973673,119.17988 V 98.449437 H 44.89345 v 4.212533 H 30.62971 v 3.10416 H 47.997477 V 95.345408 H 22.86965 v 26.938552 h 23.391052 v 4.21258 H 18.213605 V 77.349439 h 27.529759 v 4.212618 H 22.86965 v 9.570742 h 3.104023 v -6.466721 h 22.87371 V 74.245422 H 15.109581 V 129.60061 H 49.364725 V 119.17988 Z M 95.118324,74.245422 84.106425,105.2856 l 1.625919,4.6931 11.56619,-32.629261 h 4.877786 L 85.732344,123.20771 68.36458,74.245422 H 56.909247 L 76.789781,129.60061 H 80.07858 L 61.306617,77.349439 h 4.877755 l 18.513295,52.251171 h 2.032398 L 106.57366,74.245422 Z M 126.82989,119.17988 V 98.449437 h 18.91975 v 4.212533 h -14.26372 v 3.10416 h 17.36777 V 95.345408 h -25.12784 v 26.938552 h 23.39102 v 4.21258 H 119.06979 V 77.349439 h 27.52982 v 4.212618 h -22.87376 v 9.570742 h 3.10404 v -6.466721 h 22.87367 V 74.245422 h -33.7378 v 55.355188 h 34.25516 v -10.42073 z m 69.7359,-8.72077 -21.32165,-36.213688 h -3.6215 l 28.0471,47.631978 V 77.349439 h 4.65603 v 49.147101 h -7.1318 L 166.37539,74.245422 h -3.06702 v 55.355188 h 10.86402 v -27.0494 l -3.104,-5.284265 v 29.229595 h -4.656 V 80.41652 l 29.00785,49.18409 H 207.4299 V 74.245422 h -10.86411 z m 43.38868,-36.213688 v 52.251118 h -4.65612 V 74.245422 h -17.55249 v 10.420656 h 9.79251 v -3.104021 h -6.68849 v -4.212618 h 11.34451 v 52.251171 h 10.86407 V 77.349439 h 11.30749 v 4.212618 h -6.65146 v 3.104021 h 9.75554 V 74.245422 Z"
       id="text6"
       aria-label="Event" />
  </g>
</svg>
